HIERARCHY
ROOT Hips
{
    OFFSET   0.000000   0.000000   0.000000
    CHANNELS 6 Xposition Yposition Zposition Zrotation Xrotation Yrotation
    JOINT Chest
    {
        OFFSET   0.000000   8.007240   0.000000
        CHANNELS 3 Zrotation Xrotation Yrotation
        JOINT Chest2
        {
            OFFSET   0.000000  22.077100   0.000000
            CHANNELS 3 Zrotation Xrotation Yrotation
            JOINT Neck
            {
                OFFSET   0.000000  23.254800   0.000000
                CHANNELS 3 Zrotation Xrotation Yrotation
                JOINT Head
                {
                    OFFSET   0.000000  14.370000   1.956600
                    CHANNELS 3 Zrotation Xrotation Yrotation
                    End Site
                    {
                        OFFSET   0.000000  19.566000   0.000000
                    }
                }
            }
            JOINT LeftCollar
            {
                OFFSET   3.911900  19.017000  -0.467064
                CHANNELS 3 Zrotation Xrotation Yrotation
                JOINT LeftShoulder
                {
                    OFFSET  10.383700   0.000000   0.000000
                    CHANNELS 3 Zrotation Xrotation Yrotation
                    JOINT LeftElbow
                    {
                        OFFSET  26.662100   0.001476   0.000517
                        CHANNELS 3 Zrotation Xrotation Yrotation
                        JOINT LeftWrist
                        {
                            OFFSET  28.869000  -0.000025  -0.000106
                            CHANNELS 3 Zrotation Xrotation Yrotation
                            JOINT LeftFinger0
                            {
                                OFFSET   2.044660  -2.323460   3.252850
                                CHANNELS 3 Zrotation Xrotation Yrotation
                                JOINT LeftFinger01
                                {
                                    OFFSET   3.088130   0.000000   0.000000
                                    CHANNELS 3 Zrotation Xrotation Yrotation
                                    JOINT LeftFinger02
                                    {
                                        OFFSET   2.639460   0.000000   0.000000
                                        CHANNELS 3 Zrotation Xrotation Yrotation
                                        End Site
                                        {
                                            OFFSET   2.582190   0.000000   0.000000
                                        }
                                    }
                                }
                            }
                            JOINT LeftFinger1
                            {
                                OFFSET   8.364480   0.000000   3.252850
                                CHANNELS 3 Zrotation Xrotation Yrotation
                                JOINT LeftFinger11
                                {
                                    OFFSET   4.646930   0.000000   0.000000
                                    CHANNELS 3 Zrotation Xrotation Yrotation
                                    JOINT LeftFinger12
                                    {
                                        OFFSET   2.323460   0.000000   0.000000
                                        CHANNELS 3 Zrotation Xrotation Yrotation
                                        End Site
                                        {
                                            OFFSET   2.273050   0.000000   0.000000
                                        }
                                    }
                                }
                            }
                            JOINT LeftFinger2
                            {
                                OFFSET   8.364490   0.000015   1.078090
                                CHANNELS 3 Zrotation Xrotation Yrotation
                                JOINT LeftFinger21
                                {
                                    OFFSET   5.111620   0.000000   0.000000
                                    CHANNELS 3 Zrotation Xrotation Yrotation
                                    JOINT LeftFinger22
                                    {
                                        OFFSET   2.788160   0.000016   0.000000
                                        CHANNELS 3 Zrotation Xrotation Yrotation
                                        End Site
                                        {
                                            OFFSET   2.727660   0.000000   0.000000
                                        }
                                    }
                                }
                            }
                            JOINT LeftFinger3
                            {
                                OFFSET   7.899780   0.000017  -1.078090
                                CHANNELS 3 Zrotation Xrotation Yrotation
                                JOINT LeftFinger31
                                {
                                    OFFSET   4.646930   0.000000   0.000000
                                    CHANNELS 3 Zrotation Xrotation Yrotation
                                    JOINT LeftFinger32
                                    {
                                        OFFSET   2.323470   0.000000   0.000000
                                        CHANNELS 3 Zrotation Xrotation Yrotation
                                        End Site
                                        {
                                            OFFSET   2.273050   0.000000   0.000000
                                        }
                                    }
                                }
                            }
                            JOINT LeftFinger4
                            {
                                OFFSET   7.435090   0.000000  -3.252850
                                CHANNELS 3 Zrotation Xrotation Yrotation
                                JOINT LeftFinger41
                                {
                                    OFFSET   3.717550   0.000000   0.000000
                                    CHANNELS 3 Zrotation Xrotation Yrotation
                                    JOINT LeftFinger42
                                    {
                                        OFFSET   1.858770   0.000000   0.000000
                                        CHANNELS 3 Zrotation Xrotation Yrotation
                                        End Site
                                        {
                                            OFFSET   1.818440   0.000000   0.000000
                                        }
                                    }
                                }
                            }
                        }
                    }
                }
            }
            JOINT RightCollar
            {
                OFFSET  -3.911900  19.017000  -0.467063
                CHANNELS 3 Zrotation Xrotation Yrotation
                JOINT RightShoulder
                {
                    OFFSET -10.383700   0.000019   0.000000
                    CHANNELS 3 Zrotation Xrotation Yrotation
                    JOINT RightElbow
                    {
                        OFFSET -26.662100   0.001175   0.000102
                        CHANNELS 3 Zrotation Xrotation Yrotation
                        JOINT RightWrist
                        {
                            OFFSET -28.869000   0.000016  -0.000079
                            CHANNELS 3 Zrotation Xrotation Yrotation
                            JOINT RightFinger0
                            {
                                OFFSET  -2.044660  -2.323490   3.252850
                                CHANNELS 3 Zrotation Xrotation Yrotation
                                JOINT RightFinger01
                                {
                                    OFFSET  -3.088140   0.000000   0.000000
                                    CHANNELS 3 Zrotation Xrotation Yrotation
                                    JOINT RightFinger02
                                    {
                                        OFFSET  -2.639460   0.000000   0.000000
                                        CHANNELS 3 Zrotation Xrotation Yrotation
                                        End Site
                                        {
                                            OFFSET  -2.582190   0.000000   0.000000
                                        }
                                    }
                                }
                            }
                            JOINT RightFinger1
                            {
                                OFFSET  -8.364480   0.000000   3.252850
                                CHANNELS 3 Zrotation Xrotation Yrotation
                                JOINT RightFinger11
                                {
                                    OFFSET  -4.646930   0.000000   0.000000
                                    CHANNELS 3 Zrotation Xrotation Yrotation
                                    JOINT RightFinger12
                                    {
                                        OFFSET  -2.323470   0.000000   0.000000
                                        CHANNELS 3 Zrotation Xrotation Yrotation
                                        End Site
                                        {
                                            OFFSET  -2.273050   0.000000   0.000000
                                        }
                                    }
                                }
                            }
                            JOINT RightFinger2
                            {
                                OFFSET  -8.364480   0.000000   1.078090
                                CHANNELS 3 Zrotation Xrotation Yrotation
                                JOINT RightFinger21
                                {
                                    OFFSET  -5.111620   0.000000   0.000000
                                    CHANNELS 3 Zrotation Xrotation Yrotation
                                    JOINT RightFinger22
                                    {
                                        OFFSET  -2.788160   0.000000   0.000000
                                        CHANNELS 3 Zrotation Xrotation Yrotation
                                        End Site
                                        {
                                            OFFSET  -2.727660   0.000000   0.000000
                                        }
                                    }
                                }
                            }
                            JOINT RightFinger3
                            {
                                OFFSET  -7.899780   0.000000  -1.078090
                                CHANNELS 3 Zrotation Xrotation Yrotation
                                JOINT RightFinger31
                                {
                                    OFFSET  -4.646930   0.000000   0.000000
                                    CHANNELS 3 Zrotation Xrotation Yrotation
                                    JOINT RightFinger32
                                    {
                                        OFFSET  -2.323470   0.000000   0.000000
                                        CHANNELS 3 Zrotation Xrotation Yrotation
                                        End Site
                                        {
                                            OFFSET  -2.273050   0.000000   0.000000
                                        }
                                    }
                                }
                            }
                            JOINT RightFinger4
                            {
                                OFFSET  -7.435090   0.000000  -3.252850
                                CHANNELS 3 Zrotation Xrotation Yrotation
                                JOINT RightFinger41
                                {
                                    OFFSET  -3.717550   0.000000   0.000000
                                    CHANNELS 3 Zrotation Xrotation Yrotation
                                    JOINT RightFinger42
                                    {
                                        OFFSET  -1.858770   0.000000   0.000000
                                        CHANNELS 3 Zrotation Xrotation Yrotation
                                        End Site
                                        {
                                            OFFSET  -1.818440   0.000000   0.000000
                                        }
                                    }
                                }
                            }
                        }
                    }
                }
            }
        }
    }
    JOINT LeftHip
    {
        OFFSET   9.783040   0.000000   0.000000
        CHANNELS 3 Zrotation Xrotation Yrotation
        JOINT LeftKnee
        {
            OFFSET   0.000032 -41.789100  -0.002222
            CHANNELS 3 Zrotation Xrotation Yrotation
            JOINT LeftAnkle
            {
                OFFSET   0.000087 -41.133200  -0.000135
                CHANNELS 3 Zrotation Xrotation Yrotation
                JOINT LeftToe
                {
                    OFFSET   0.000000  -6.358960  14.674500
                    CHANNELS 3 Zrotation Xrotation Yrotation
                    End Site
                    {
                        OFFSET   0.000000   0.000000   3.913200
                    }
                }
            }
        }
    }
    JOINT RightHip
    {
        OFFSET  -9.783040   0.000000   0.000000
        CHANNELS 3 Zrotation Xrotation Yrotation
        JOINT RightKnee
        {
            OFFSET   0.000047 -41.789100  -0.000896
            CHANNELS 3 Zrotation Xrotation Yrotation
            JOINT RightAnkle
            {
                OFFSET  -0.000117 -41.133300  -0.000248
                CHANNELS 3 Zrotation Xrotation Yrotation
                JOINT RightToe
                {
                    OFFSET   0.000000  -6.358970  14.674500
                    CHANNELS 3 Zrotation Xrotation Yrotation
                    End Site
                    {
                        OFFSET   0.000000   0.000000   3.913200
                    }
                }
            }
        }
    }
}
MOTION
Frames: 4
Frame Time:   0.016667
  0.473397  89.504600   1.075690  -1.953310  -2.008900   0.487967   1.098930   1.500180  -0.605928   2.214800   2.988370  -1.241170   0.965908   0.963347  -0.017660   1.592020   1.952140   2.786790  -4.438730   5.217550   1.216210 -71.695400  10.708100  -4.225010  -2.319320  -4.551350 -11.054700   4.296450  -8.103040  10.513300  40.607900  28.912200 -59.853900 -25.750000   0.001010   0.001049  -7.871250   0.000509  -0.002679 -33.158300   5.676980  -8.606220 -27.481500   0.000222  -0.007889 -19.248700   0.001003  -0.006766 -28.510500   2.789760  -5.118370 -38.058600  -0.004951  -0.002164 -25.332500  -0.011179   0.003198 -28.273500   0.144708  -0.269086 -33.981300  -0.003836  -0.011672 -22.631500  -0.004947  -0.002347 -34.033800   0.170988  -0.253201 -51.051200   0.000824  -0.003757 -34.000100   0.000000  -0.003692   3.972290   1.697180   4.861060  74.767300   0.281683  -1.701090  -0.693755   2.027060  12.462900  -9.683370 -10.195200   7.304880 -42.352600  34.369200  67.173400  27.107600  -0.007518  -0.003626   8.551150   0.002247   0.012355  31.440700   6.713440  10.825000  26.245200  -0.008510  -0.002818  18.371600  -0.008630  -0.003104  28.023900   4.825750   8.978770  35.221900  -0.000225  -0.001809  23.457800   0.002957   0.002689  28.202900   3.115020   5.784010  34.826400  -0.006037  -0.001776  23.194300  -0.001511  -0.001937  32.346300   0.821191   1.284780  48.533700  -0.000470  -0.000721  32.323400   0.001648   0.000099   3.463320   5.141030   3.455620   1.041310   0.439385  10.788000  -3.317170  -2.389840   2.240660  -0.000000   0.000000  -0.000000   0.732934   1.143170  -3.484850  -0.004838   4.400050  -8.657970  -1.726950  -2.801330  -1.499340   0.000000   0.000000   0.000000
  0.473338  89.504600   1.077000  -1.954600  -2.008900   0.488768   1.098920   1.500010  -0.603079   2.214690   2.988080  -1.235420   0.965906   0.964505  -0.017684   1.591720   1.954010   2.793950  -4.443280   5.213870   1.212040 -71.697200  10.699100  -4.218710  -2.328140  -4.551010 -11.076300   4.290320  -8.103370  10.501000  40.606300  28.905700 -59.839400 -25.750000   0.001009   0.001054  -7.871270   0.000508  -0.002684 -33.160200   5.670290  -8.595470 -27.481300   0.000223  -0.007890 -19.248600   0.001002  -0.006765 -28.512400   2.779070  -5.099750 -38.058600  -0.004951  -0.002162 -25.332400  -0.011181   0.003198 -28.273600   0.134660  -0.250472 -33.987200  -0.003834  -0.011673 -22.635400  -0.004947  -0.002346 -34.039900   0.159136  -0.235669 -51.060300   0.000826  -0.003757 -34.006200   0.000000  -0.003690   3.972200   1.697420   4.864290  74.762700   0.298203  -1.700270  -0.681774   2.027170  12.487000  -9.679370 -10.170500   7.312380 -42.366700  34.374200  67.147800  27.107600  -0.007514  -0.003619   8.551210   0.002242   0.012356  31.417200   6.683160  10.787100  26.221700  -0.008508  -0.002816  18.355200  -0.008629  -0.003101  28.024900   4.822960   8.973910  35.211400  -0.000223  -0.001807  23.450800   0.002963   0.002688  28.204000   3.109200   5.773420  34.815400  -0.006038  -0.001779  23.187000  -0.001507  -0.001936  32.340500   0.821084   1.286020  48.525000  -0.000470  -0.000722  32.317600   0.001651   0.000097   3.462080   5.156030   3.455930   1.038680   0.401466  10.788700  -3.314680  -2.376310   2.238130  -0.000000   0.000000   0.000000   0.735963   1.152000  -3.479840  -0.007988   4.385260  -8.667200  -1.726940  -2.801040  -1.499340   0.000000   0.000000   0.000000
  0.473279  89.504600   1.080090  -1.957270  -2.008900   0.492640   1.098890   1.499840  -0.599663   2.214530   2.987800  -1.228620   0.965891   0.969581  -0.017708   1.590980   1.963800   2.809730  -4.449760   5.208210   1.207860 -71.699000  10.690200  -4.212410  -2.340720  -4.550510 -11.108600   4.281120  -8.103860  10.486000  40.603700  28.900900 -59.822600 -25.749900   0.001009   0.001058  -7.871300   0.000506  -0.002689 -33.162800   5.660910  -8.580740 -27.481100   0.000225  -0.007891 -19.248500   0.000999  -0.006765 -28.514400   2.768380  -5.078880 -38.058600  -0.004950  -0.002158 -25.332100  -0.011188   0.003201 -28.273800   0.120427  -0.223921 -33.993000  -0.003829  -0.011676 -22.639300  -0.004948  -0.002344 -34.046000   0.142340  -0.210670 -51.069500   0.000835  -0.003756 -34.012300   0.000000  -0.003685   3.972160   1.697640   4.870420  74.754400   0.323680  -1.698470  -0.663428   2.027210  12.520400  -9.674220 -10.136000   7.319650 -42.386200  34.379600  67.102000  27.107600  -0.007502  -0.003611   8.551330   0.002238   0.012361  31.381200   6.641150  10.736200  26.186600  -0.008504  -0.002812  18.330600  -0.008627  -0.003094  28.026900   4.816520   8.962470  35.193800  -0.000218  -0.001805  23.439000   0.002975   0.002687  28.206200   3.098450   5.753920  34.794200  -0.006038  -0.001788  23.172900  -0.001498  -0.001935  32.329400   0.820976   1.288990  48.508200  -0.000465  -0.000726  32.306400   0.001655   0.000096   3.460830   5.171030   3.456240   1.036050   0.363548  10.789400  -3.312320  -2.362780   2.232370  -0.000000   0.000000   0.000000   0.741231   1.168160  -3.472740  -0.012767   4.363070  -8.680950  -1.726930  -2.800740  -1.499350  -0.000000   0.000000  -0.000000
  0.476752  89.504600   1.084610  -1.960870  -2.009320   0.501301   1.098650   1.502220  -0.599133   2.214060   2.992580  -1.227650   0.965783   0.979389  -0.017652   1.589680   1.984040   2.831800  -4.452570   5.205770   1.212210 -71.703800  10.697000  -4.212800  -2.348270  -4.558870 -11.126000   4.275150  -8.107740  10.484100  40.607100  28.910900 -59.824900 -25.749900   0.001015   0.001050  -7.871330   0.000501  -0.002672 -33.163800   5.656820  -8.575590 -27.481000   0.000229  -0.007891 -19.248400   0.000999  -0.006766 -28.514500   2.768940  -5.076260 -38.052700  -0.004950  -0.002150 -25.332000  -0.011200   0.003205 -28.273900   0.113737  -0.210793 -33.984700  -0.003822  -0.011681 -22.633200  -0.004949  -0.002340 -34.038200   0.134421  -0.198336 -51.058100   0.000850  -0.003754 -34.004400   0.000000  -0.003676   3.973950   1.697290   4.876600  74.745900   0.339183  -1.695330  -0.651393   2.026100  12.533300  -9.672910 -10.123500   7.313720 -42.392300  34.376500  67.055500  27.112500  -0.007480  -0.003617   8.551500   0.002240   0.012385  31.355400   6.624600  10.720900  26.164500  -0.008501  -0.002812  18.314700  -0.008619  -0.003084  28.030400   4.804760   8.940990  35.178500  -0.000210  -0.001808  23.428800   0.002990   0.002688  28.208700   3.085750   5.730630  34.770000  -0.006038  -0.001806  23.156800  -0.001489  -0.001934  32.316300   0.821001   1.293760  48.488500  -0.000452  -0.000737  32.293300   0.001657   0.000097   3.462600   5.164930   3.456040   1.033980   0.381373  10.783600  -3.313740  -2.375740   2.224300   0.000000   0.000000   0.000000   0.746183   1.186660  -3.469370  -0.015328   4.348220  -8.688620  -1.726790  -2.800930  -1.501900   0.000000   0.000000   0.000000
